<svg xmlns="http://www.w3.org/2000/svg" viewBox="0 0 64 64"><defs><style>.cls-2{fill:#e2e2e2}.cls-4{fill:none;stroke:#000;stroke-linecap:round;stroke-linejoin:round;stroke-width:2px}.cls-7{mix-blend-mode:overlay;fill:#fff}</style></defs><g style="isolation:isolate"><g id="Layer_1" data-name="Layer 1"><g id="Vector"><path class="cls-2" d="m25.54 6.9-2.08 2a24.89 24.89 0 0 0-9.62 4.57l.51-3-3.73-3.57 5.15-.74 2.31-4.68 2.3 4.68zM40.81 7.49l2.44 4.95 5.46.79-3.95 3.85.93 5.44-4.88-2.57-4.89 2.57.93-5.44-3.95-3.85 5.46-.79 2.45-4.95zM52.77 23.5l2.21 4.47 4.92.71-3.56 3.48.84 4.9-4.41-2.31-4.4 2.31.84-4.9-3.56-3.48 4.92-.71 2.2-4.47zM39.89 57.79l.8 4.73-4.25-2.24-4.25 2.24.81-4.44a25 25 0 0 0 9.8-3.73l.57.08z"/><path d="M51.88 43.83a25 25 0 1 1-38-30.34 24.89 24.89 0 0 1 9.62-4.57c.59-.13 1.16-.25 1.76-.34a25.08 25.08 0 0 0 26.62 35.25z" style="fill:#fb0"/></g><g id="Line"><path class="cls-4" d="m25.54 6.9-2.08 2a24.89 24.89 0 0 0-9.62 4.57l.51-3-3.73-3.57 5.15-.74 2.31-4.68 2.3 4.68zM40.81 7.49l2.44 4.95 5.46.79-3.95 3.85.93 5.44-4.88-2.57-4.89 2.57.93-5.44-3.95-3.85 5.46-.79 2.45-4.95zM52.77 23.5l2.21 4.47 4.92.71-3.56 3.48.84 4.9-4.41-2.31-4.4 2.31.84-4.9-3.56-3.48 4.92-.71 2.2-4.47zM39.89 57.79l.8 4.73-4.25-2.24-4.25 2.24.81-4.44a25 25 0 0 0 9.8-3.73l.57.08z"/><path class="cls-4" d="M51.88 43.83a25 25 0 1 1-38-30.34 24.89 24.89 0 0 1 9.62-4.57c.59-.13 1.16-.25 1.76-.34a25.08 25.08 0 0 0 26.62 35.25z"/></g><g id="Shadow" style="opacity:.25;mix-blend-mode:multiply"><path d="m36.44 60.28 1 .55.56-2.75a25 25 0 0 1-3.81.28h-1.23l-.72 4.19zM40.69 62.52l-.29-1.69-1.46.77 1.75.92zM4.1 33.32a25 25 0 0 0 25 25c.83 0 1.64 0 2.45-.13A25.05 25.05 0 0 1 9.1 33.32a34.83 34.83 0 0 1 1.23-7.8A41.92 41.92 0 0 1 17.45 11l-.45-.62c.14-.93.27-1.87.41-2.81s.21-1.66.32-2.49c.1-1.2.2-2.4.31-3.6l-2.27 4.68-5.15.74 3.73 3.63-.51 3A25 25 0 0 0 4.1 33.32z"/></g><g id="Highligth" style="mix-blend-mode:overlay"><path class="cls-7" d="m48.71 13.23-5.46-.79-1-2v10.29l3.41 1.79-.93-5.44zM36.32 20.22l-.4 2.3 2.39-1.25-1.99-1.05zM48.37 37.06l1.9-1-1.59-.83-.31 1.83zM48 44.13h-1.23a25.19 25.19 0 0 1-9 10.25q-1.44 1.71-2.86 3.44l.51 3 1-.55 4.25 2.24-.8-4.73 3.43-3.36-.57-.08a25.17 25.17 0 0 0 9.13-10.52 25.16 25.16 0 0 1-3.86.31zM32.19 62.52l1.75-.92-1.46-.77-.29 1.69zM27.91 58.33v-.25c-.44.07-.9.11-1.36.15.45.05.92.08 1.36.1zM20.38 6.16l-2.3-4.68 2.46 5.42L20 9.14c-.08 0-.66-.25-.64-.4s.85-.16.89-.16A25.06 25.06 0 0 0 43 44.13c.82 0 1.63-.05 2.43-.13A25.07 25.07 0 0 1 25.22 8.58c-.6.09-1.17.21-1.76.34l2.08-2zM59.9 28.68 55 28l-1.21-2.45v9.75l3.41 1.79-.84-4.9z"/></g></g></g></svg>